<svg width="32" height="32" viewBox="0 0 32 32" fill="none" xmlns="http://www.w3.org/2000/svg">
  <!-- Background circle -->
  <circle cx="16" cy="16" r="15" fill="#3B82F6" stroke="#1E40AF" stroke-width="2"/>
  
  <!-- Book/Learning icon -->
  <path d="M8 10C8 9.44772 8.44772 9 9 9H15C15.5523 9 16 9.44772 16 10V22C16 22.5523 15.5523 23 15 23H9C8.44772 23 8 22.5523 8 22V10Z" fill="white" fill-opacity="0.9"/>
  <path d="M16 10C16 9.44772 16.4477 9 17 9H23C23.5523 9 24 9.44772 24 10V22C24 22.5523 23.5523 23 23 23H17C16.4477 23 16 22.5523 16 22V10Z" fill="white" fill-opacity="0.7"/>
  
  <!-- Pages/lines -->
  <line x1="10" y1="12" x2="14" y2="12" stroke="#3B82F6" stroke-width="1" stroke-linecap="round"/>
  <line x1="10" y1="14" x2="14" y2="14" stroke="#3B82F6" stroke-width="1" stroke-linecap="round"/>
  <line x1="10" y1="16" x2="14" y2="16" stroke="#3B82F6" stroke-width="1" stroke-linecap="round"/>
  
  <line x1="18" y1="12" x2="22" y2="12" stroke="#3B82F6" stroke-width="1" stroke-linecap="round"/>
  <line x1="18" y1="14" x2="22" y2="14" stroke="#3B82F6" stroke-width="1" stroke-linecap="round"/>
  <line x1="18" y1="16" x2="22" y2="16" stroke="#3B82F6" stroke-width="1" stroke-linecap="round"/>
  
  <!-- Graduation cap element -->
  <ellipse cx="16" cy="7" rx="6" ry="2" fill="#FCD34D"/>
  <path d="M10 7L16 5L22 7L16 9L10 7Z" fill="#F59E0B"/>
  
  <!-- Learning/education symbol -->
  <circle cx="16" cy="19" r="2" fill="#F59E0B"/>
  <path d="M16 17L16 21M14 19L18 19" stroke="white" stroke-width="1.5" stroke-linecap="round"/>
</svg>
